# xmcd CD database file
#
# Track frame offsets:
#	150
#	12869
#	28837
#	40092
#	51487
#	62594
#	74667
#	90102
#	102587
#	116102
#	134147
#
# Disc length: 1942 seconds
#
# Revision: 0
# Processed by: cddbd v1.5.2PL0 Copyright (c) Steve Scherf et al.
# Submitted via: CDex 1.78
#
DISCID=9f07940b
DTITLE=Dinah Washington - The Swingin' Miss D
DYEAR=1956
DGENRE=Jazz
TTITLE0=They didn't believe me
TTITLE1=You're crying
TTITLE2=Makin' whoopee
TTITLE3=Ev'ry time we say goodbye
TTITLE4=But not for me
TTITLE5=Caravan
TTITLE6=Perdido
TTITLE7=Never let me go
TTITLE8=Is you is or is you ain't my baby
TTITLE9=I'll close my eyes
TTITLE10=Somebody loves me
EXTD=YEAR: 1956
EXTT0=
EXTT1=
EXTT2=
EXTT3=
EXTT4=
EXTT5=
EXTT6=
EXTT7=
EXTT8=
EXTT9=
EXTT10=
PLAYORDER=
